<?xml version="1.0" standalone="no"?>
<!DOCTYPE svg PUBLIC "-//W3C//DTD SVG 20010904//EN"
 "http://www.w3.org/TR/2001/REC-SVG-20010904/DTD/svg10.dtd">
<svg version="1.0" xmlns="http://www.w3.org/2000/svg"
 width="512.000000pt" height="512.000000pt" viewBox="0 0 512.000000 512.000000"
 preserveAspectRatio="xMidYMid meet">
<metadata>
Created by potrace 1.11, written by Peter Selinger 2001-2013
</metadata>
<g transform="translate(0.000000,512.000000) scale(0.100000,-0.100000)"
fill="#000000" stroke="none">
<path d="M0 2560 l0 -2560 2560 0 2560 0 0 2560 0 2560 -2560 0 -2560 0 0
-2560z m1635 2045 c313 -65 635 -268 824 -520 59 -79 100 -110 134 -101 14 3
55 47 101 106 191 244 410 402 662 475 156 45 267 57 479 52 198 -6 264 -16
403 -63 159 -53 402 -207 402 -255 0 -11 -59 -60 -157 -132 -989 -720 -1919
-1673 -2465 -2527 -59 -92 -81 -115 -100 -107 -7 2 -26 49 -42 103 -115 392
-263 680 -405 787 -131 100 -284 104 -461 11 -81 -42 -219 -146 -285 -214 -48
-49 -50 -53 -49 -105 1 -40 11 -73 40 -133 l39 -79 -34 26 c-47 36 -196 204
-263 298 -167 233 -283 517 -334 818 -25 142 -25 458 -1 579 28 136 64 241
123 356 181 349 527 579 964 640 93 13 331 5 425 -15z m3394 -517 c-30 -175
-40 -333 -30 -438 53 -510 -20 -919 -224 -1265 -109 -185 -215 -304 -465 -519
-620 -533 -1622 -1399 -1697 -1468 -24 -21 -47 -38 -53 -38 -15 0 -322 272
-343 303 -24 37 -21 70 8 105 14 17 84 126 156 244 379 617 662 1024 1103
1583 372 473 619 746 960 1065 183 169 586 528 596 529 3 1 -2 -45 -11 -101z"/>
</g>
</svg>
